<svg xmlns="http://www.w3.org/2000/svg" viewBox="0 0 760 420" font-family="-apple-system, Segoe UI, Helvetica, Arial, sans-serif"><text x="60" y="44" font-size="13" fill="#57606a">Most active agencies, 2026-08-13 — real v0.2 output</text><text x="60" y="80" font-size="12" fill="#57606a">National Park Service</text><rect x="270" y="64" width="580.0" height="22" rx="5" fill="#bfd4f2"/><text x="858.0" y="80" font-size="13" font-weight="700" fill="#1f2328">22</text><text x="60" y="116" font-size="12" fill="#57606a">Securities and Exchange Commission</text><rect x="270" y="100" width="342.72727272727275" height="22" rx="5" fill="#bfd4f2"/><text x="620.7272727272727" y="116" font-size="13" font-weight="700" fill="#1f2328">13</text><text x="60" y="152" font-size="12" fill="#57606a">Federal Aviation Administration</text><rect x="270" y="136" width="237.27272727272728" height="22" rx="5" fill="#bfd4f2"/><text x="515.2727272727273" y="152" font-size="13" font-weight="700" fill="#1f2328">9</text><text x="60" y="188" font-size="12" fill="#57606a">Federal Energy Regulatory Commission</text><rect x="270" y="172" width="158.18181818181816" height="22" rx="5" fill="#bfd4f2"/><text x="436.18181818181813" y="188" font-size="13" font-weight="700" fill="#1f2328">6</text><text x="60" y="224" font-size="12" fill="#57606a">International Trade Administration</text><rect x="270" y="208" width="158.18181818181816" height="22" rx="5" fill="#bfd4f2"/><text x="436.18181818181813" y="224" font-size="13" font-weight="700" fill="#1f2328">6</text><text x="60" y="260" font-size="12" fill="#57606a">Environmental Protection Agency</text><rect x="270" y="244" width="131.8181818181818" height="22" rx="5" fill="#bfd4f2"/><text x="409.8181818181818" y="260" font-size="13" font-weight="700" fill="#1f2328">5</text><text x="60" y="296" font-size="12" fill="#57606a">Centers for Medicare &amp; Medicaid Services</text><rect x="270" y="280" width="79.09090909090908" height="22" rx="5" fill="#bfd4f2"/><text x="357.09090909090907" y="296" font-size="13" font-weight="700" fill="#1f2328">3</text><text x="60" y="332" font-size="12" fill="#57606a">National Institutes of Health</text><rect x="270" y="316" width="79.09090909090908" height="22" rx="5" fill="#bfd4f2"/><text x="357.09090909090907" y="332" font-size="13" font-weight="700" fill="#1f2328">3</text><text x="60" y="368" font-size="12" fill="#57606a">Small Business Administration</text><rect x="270" y="352" width="79.09090909090908" height="22" rx="5" fill="#bfd4f2"/><text x="357.09090909090907" y="368" font-size="13" font-weight="700" fill="#1f2328">3</text><text x="60" y="404" font-size="12" fill="#57606a">Agriculture Department</text><rect x="270" y="388" width="52.72727272727273" height="22" rx="5" fill="#bfd4f2"/><text x="330.72727272727275" y="404" font-size="13" font-weight="700" fill="#1f2328">2</text></svg>
